<svg xmlns="http://www.w3.org/2000/svg" viewBox="0 0 64 64" id="industry"><polygon fill="#c3c3c3" points="41 48 31 48 32 18 40 18 41 48"></polygon><polygon fill="#e06661" points="31.733 26 40.267 26 40.133 22 31.867 22 31.733 26"></polygon><polygon fill="#c3c3c3" points="24 48 14 48 15 18 23 18 24 48"></polygon><polygon fill="#e06661" points="14.733 26 23.267 26 23.133 22 14.867 22 14.733 26"></polygon><rect width="18" height="16" x="18" y="45" fill="#e0e0e0"></rect><rect width="4" height="5" x="25" y="56" fill="#5b99a2"></rect><rect width="3" height="4" x="26" y="57" fill="#64a8b2"></rect><line x1="55" x2="55" y1="58" y2="56" fill="none" stroke="#000" stroke-linejoin="round" stroke-width="2"></line><path fill="#ebebeb" d="M43 3a4 4 0 0 0-4 4H36a4 4 0 0 0-4 4v3h9a4 4 0 0 0 4-4h3a4 4 0 0 0 4-4V3zM23 3a4 4 0 0 0-4 4V8a4 4 0 0 0-4 4v2h6a4 4 0 0 0 4-4V9a4 4 0 0 0 4-4V3z"></path><polygon fill="#64a8b2" points="35 51 19 51 19 45 35 36 35 51"></polygon><rect width="16" height="9" x="35" y="52" fill="#d6d6d6"></rect><polygon fill="#60a0aa" points="51 53 35 53 35 45 51 36 51 53"></polygon><rect width="2" height="2" x="38" y="56" fill="#c3c3c3"></rect><rect width="2" height="2" x="42" y="56" fill="#c3c3c3"></rect><rect width="2" height="2" x="46" y="56" fill="#c3c3c3"></rect><rect width="16" height="9" x="3" y="52" fill="#d6d6d6"></rect><polygon fill="#60a0aa" points="19 53 3 53 3 45 19 36 19 53"></polygon><rect width="2" height="2" x="6" y="56" fill="#c3c3c3"></rect><rect width="2" height="2" x="10" y="56" fill="#c3c3c3"></rect><rect width="2" height="2" x="14" y="56" fill="#c3c3c3"></rect><rect width="2" height="8" x="17" y="53" fill="#c3c3c3"></rect><polygon fill="#5d9aa4" points="19 53 17 53 17 46 19 45 19 53"></polygon><rect width="8" height="8" x="51" y="53" fill="#cfcfcf"></rect><path fill="#5b99a2" d="M51,49h8a2,2,0,0,1,2,2v0a2,2,0,0,1-2,2H51a0,0,0,0,1,0,0V49A0,0,0,0,1,51,49Z"></path><rect width="8" height="4" x="51" y="45" fill="#cfcfcf"></rect><g><polygon fill="#c3c3c3" points="41 48 31 48 32 18 40 18 41 48"></polygon><polygon fill="#e06661" points="31.733 26 40.267 26 40.133 22 31.867 22 31.733 26"></polygon><polygon fill="#c3c3c3" points="24 48 14 48 15 18 23 18 24 48"></polygon><polygon fill="#e06661" points="14.733 26 23.267 26 23.133 22 14.867 22 14.733 26"></polygon><rect width="18" height="16" x="18" y="45" fill="#e0e0e0"></rect><rect width="4" height="5" x="25" y="56" fill="#5b99a2"></rect><rect width="3" height="4" x="26" y="57" fill="#64a8b2"></rect><line x1="55" x2="55" y1="58" y2="56" fill="none" stroke="#000" stroke-linejoin="round" stroke-width="2"></line><path fill="#ebebeb" d="M43 3a4 4 0 0 0-4 4H36a4 4 0 0 0-4 4v3h9a4 4 0 0 0 4-4h3a4 4 0 0 0 4-4V3zM23 3a4 4 0 0 0-4 4V8a4 4 0 0 0-4 4v2h6a4 4 0 0 0 4-4V9a4 4 0 0 0 4-4V3z"></path><polygon fill="#64a8b2" points="35 51 19 51 19 45 35 36 35 51"></polygon><rect width="16" height="9" x="35" y="52" fill="#d6d6d6"></rect><polygon fill="#60a0aa" points="51 53 35 53 35 45 51 36 51 53"></polygon><rect width="2" height="2" x="38" y="56" fill="#c3c3c3"></rect><rect width="2" height="2" x="42" y="56" fill="#c3c3c3"></rect><rect width="2" height="2" x="46" y="56" fill="#c3c3c3"></rect><rect width="16" height="9" x="3" y="52" fill="#d6d6d6"></rect><polygon fill="#60a0aa" points="19 53 3 53 3 45 19 36 19 53"></polygon><rect width="2" height="2" x="6" y="56" fill="#c3c3c3"></rect><rect width="2" height="2" x="10" y="56" fill="#c3c3c3"></rect><rect width="2" height="2" x="14" y="56" fill="#c3c3c3"></rect><rect width="2" height="8" x="17" y="53" fill="#c3c3c3"></rect><polygon fill="#5d9aa4" points="19 53 17 53 17 46 19 45 19 53"></polygon><rect width="8" height="8" x="51" y="53" fill="#cfcfcf"></rect><path fill="#5b99a2" d="M51,49h8a2,2,0,0,1,2,2v0a2,2,0,0,1-2,2H51a0,0,0,0,1,0,0V49A0,0,0,0,1,51,49Z"></path><rect width="8" height="4" x="51" y="45" fill="#cfcfcf"></rect><rect width="2" height="2" x="6" y="56"></rect><rect width="2" height="2" x="10" y="56"></rect><rect width="2" height="2" x="14" y="56"></rect><rect width="2" height="2" x="38" y="56"></rect><rect width="2" height="2" x="42" y="56"></rect><rect width="2" height="2" x="46" y="56"></rect><rect width="2" height="2" x="54" y="56"></rect><path d="M60 48.184V45a1 1 0 0 0-1-1H52V36a1 1 0 0 0-1.49-.872l-8.774 4.936L41 17.967A1 1 0 0 0 40 17H32a1 1 0 0 0-1 .967l-.649 19.5-5.6 3.148L24 17.967A1 1 0 0 0 23 17H15a1 1 0 0 0-1 .967l-.133 4h0l-.133 4h0l-.4 12.074L2.51 44.128A1 1 0 0 0 2 45V61a1 1 0 0 0 1 1H59a1 1 0 0 0 1-1V53.816a2.982 2.982 0 0 0 0-5.632zM32.967 19h6.066l.066 2H32.9zm-.139 4.191L32.834 23h6.332l.015.453L39.233 25H32.767zM15.967 19h6.066l.066 2H15.9zm-.133 4h6.332l.024.719L22.233 25H15.767zM18 60H4V54H18zm0-15v7H4V45.585L18 37.71zm1.5-9.863a1 1 0 0 0-.995-.009l-3.139 1.766L15.7 27h6.6l.491 14.721L20 43.29V36A1 1 0 0 0 19.505 35.137zM28 60H26V57h2zm6 0H30V56a1 1 0 0 0-1-1H25a1 1 0 0 0-1 1v4H20V51H34zm0-15v4H20V45.585L34 37.71zm1.505-9.863a1 1 0 0 0-1-.009l-2.12 1.193L32.7 27h6.6l.473 14.169L36 43.29V36A1 1 0 0 0 35.505 35.137zM50 60H36V54H50zm0-8H36V45.585L50 37.71zm2-6h6v2H52zm6 14H52V54h6zm1-8H52V50h7a1 1 0 0 1 0 2zM32 15h9a5.008 5.008 0 0 0 4.9-4H48a5.006 5.006 0 0 0 5-5V3a1 1 0 0 0-1-1H43a5.008 5.008 0 0 0-4.9 4H36a5.006 5.006 0 0 0-5 5v3A1 1 0 0 0 32 15zm1-4a3 3 0 0 1 3-3h3a1 1 0 0 0 1-1 3 3 0 0 1 3-3h8V6a3 3 0 0 1-3 3H45a1 1 0 0 0-1 1 3 3 0 0 1-3 3H33zM15 15h6a5.006 5.006 0 0 0 5-5V9.9A5.008 5.008 0 0 0 30 5V3a1 1 0 0 0-1-1H23a5.006 5.006 0 0 0-5 5v.1A5.008 5.008 0 0 0 14 12v2A1 1 0 0 0 15 15zm1-3a3 3 0 0 1 3-3 1 1 0 0 0 1-1V7a3 3 0 0 1 3-3h5V5a3 3 0 0 1-3 3 1 1 0 0 0-1 1v1a3 3 0 0 1-3 3H16z"></path></g></svg>